#define hand_width 32
#define hand_height 32
static unsigned char hand_bits[] = {
   0x00, 0x00, 0x00, 0x00, 0x00, 0x00, 0x00, 0x00, 0x00, 0x00, 0x00, 0x00,
   0x00, 0x00, 0x00, 0x00, 0x00, 0x00, 0x00, 0x00, 0x00, 0x00, 0x00, 0x00,
   0x00, 0x00, 0x00, 0x00, 0x00, 0x80, 0x07, 0x00, 0x00, 0xf0, 0x3c, 0x00,
   0x00, 0x90, 0x24, 0x00, 0x00, 0x90, 0xe4, 0x00, 0x00, 0x90, 0xa4, 0x01,
   0x00, 0x90, 0x24, 0x01, 0x00, 0x90, 0x24, 0x01, 0x80, 0x93, 0x24, 0x01,
   0x40, 0x16, 0x00, 0x01, 0x40, 0x1c, 0x00, 0x01, 0x40, 0x00, 0x00, 0x01,
   0xc0, 0x00, 0x00, 0x01, 0x80, 0x01, 0x00, 0x01, 0x00, 0x03, 0x80, 0x01,
   0x00, 0x0e, 0xc0, 0x00, 0x00, 0x18, 0x60, 0x00, 0x00, 0x10, 0x20, 0x00,
   0x00, 0x10, 0x20, 0x00, 0x00, 0xf0, 0x3f, 0x00, 0x00, 0x00, 0x00, 0x00,
   0x00, 0x00, 0x00, 0x00, 0x00, 0x00, 0x00, 0x00, 0x00, 0x00, 0x00, 0x00,
   0x00, 0x00, 0x00, 0x00, 0x00, 0x00, 0x00, 0x00 };
