#define magnify_width 32
#define magnify_height 32
static unsigned char magnify_bits[] = {
   0x00, 0x00, 0x00, 0x00, 0x00, 0x00, 0x00, 0x00, 0x00, 0x00, 0x00, 0x00,
   0x00, 0x00, 0x00, 0x00, 0x00, 0x00, 0x00, 0x00, 0x00, 0x00, 0x00, 0x00,
   0x00, 0x00, 0x1e, 0x00, 0x00, 0x80, 0x73, 0x00, 0x00, 0xc0, 0xc0, 0x00,
   0x00, 0x60, 0x80, 0x01, 0x00, 0x20, 0x00, 0x01, 0x00, 0x30, 0x00, 0x03,
   0x00, 0x10, 0x00, 0x02, 0x00, 0x10, 0x00, 0x02, 0x00, 0x30, 0x00, 0x03,
   0x00, 0x20, 0x00, 0x01, 0x00, 0x60, 0x80, 0x01, 0x00, 0xc0, 0xc0, 0x00,
   0x00, 0xb0, 0x73, 0x00, 0x00, 0x38, 0x1e, 0x00, 0x00, 0x1c, 0x00, 0x00,
   0x00, 0x0e, 0x00, 0x00, 0x00, 0x07, 0x00, 0x00, 0x80, 0x03, 0x00, 0x00,
   0xc0, 0x01, 0x00, 0x00, 0x80, 0x00, 0x00, 0x00, 0x00, 0x00, 0x00, 0x00,
   0x00, 0x00, 0x00, 0x00, 0x00, 0x00, 0x00, 0x00, 0x00, 0x00, 0x00, 0x00,
   0x00, 0x00, 0x00, 0x00, 0x00, 0x00, 0x00, 0x00 };
