/* XPM */
static const char * mpprinter_xpm[] = {
"48 48 9 1",
" 	c None",
".	c #46361B",
"+	c #70635A",
"@	c #FFF8EB",
"#	c #261909",
"$	c #FFFFFF",
"%	c #999999",
"&	c #ECD6BA",
"*	c #D4C0A7",
"                                                ",
"                                                ",
"                                                ",
"                                                ",
"                                                ",
"                                                ",
"                                                ",
"                                                ",
" .++++++++++++++++++++++++++++++++++++......... ",
".@++++++++++++++++++++++++++++++++++++@@@@@@@@@.",
".@+.+.+.+.+.+.+.+.+.+.+.+.+.+.+.+.+.+.@@@@@@@@@.",
".@....................................@@@@@@@@@.",
".@....................................@@@@@@@@@.",
".@....................................@@@@@@@@@.",
".@.#.#.#.#.#.#.#.#.#.#.#.#.#.#.#.#.#.#@@@@@@@@@.",
".@####################################@@@@@@@@@.",
".@####################################@@@@@@@@@.",
".@#$$$$$$$$$$$$$$$$$$$$$$$$$$$$$$$$$$#@@@@@@@@@.",
".@#$$$$$$$$$$$$$$$$$$$$$$$$$$$$$$$$$$#@.......@.",
".@#$$$$$$$$$$$$$$$$$$$$$$$$$$$$$$$$$$#@...#..#@.",
".@#%%%%$$$$%%$$%$%$%$%$%$$%%%$$$%%%%%#@#######@.",
".@+%%%%%%%%%%%%%%%%%%%%%%%%%%%%%%%%%%+@@@@@@@@@.",
".@++++++++++++++++++++++++++++++++++++@&&&&&&&@.",
".@....................................@&@@@@@&@.",
".@....................................@&@@@@@&@.",
".@....................................@&@&@@@&@.",
".@....................................@&@&@@@&@.",
".@@@@@@@@@@@@@@@@@@@@@@@@@@@@@@@@@@@@@@@@@@@@@@.",
".@@@@@@@@@@@@@@@@@@@@@@@@@@@@@@@@@@@@@@@@@@@@@@.",
".@@@@@@@@@@@@@@@@@@@@@@@@@@@@@@@@@@@@@@@@@@@@@@.",
".**********************************************.",
".&&&&&&&&&&&&&&&&&&&&&&&&&&&&&&&&&&&&&&&&&&&&&&.",
".&&&&&&&&&&&&&&&&&&&&&&&&&&&&&&&&&&&&&&&&&&&&&&.",
".&&&&&&&&&&&&&&&&&&&&&&&&&&&&&&&&&&&&&&&&&&&&&&.",
".&&&&&&&&&&&&&&&&&&&&&&&&&&&&&&&&&&&&&&&&&&&&&&.",
".&&&&&&&&&&&&&&&&&&&&&&&&&&&&&&&&&&&&&&&&&&&&&&.",
".&&&&&&&&&&&&&&&&&&&&&&&&&&&&&&&&&&&&&&&&&&&&&&.",
".&&&&&&&&&&&&&&&&&&&&&&&&&&&&&&&&&&&&&&&&&&&&&&.",
".&&&&&&&&&&&&&&&&&&&&&&&&&&&&&&&&&&&&&&&&&&&&&&.",
" .............................................. ",
"                                                ",
"                                                ",
"                                                ",
"                                                ",
"                                                ",
"                                                ",
"                                                ",
"                                                "};
